<?xml version="1.0" encoding="UTF-8" standalone="no"?>
<svg
   id="Layer_1"
   data-name="Layer 1"
   viewBox="0 0 350 277.7778"
   version="1.1"
   sodipodi:docname="logo.svg"
   width="350"
   height="277.77802"
   xml:space="preserve"
   inkscape:version="1.4.3 (0d15f75042, 2025-12-25)"
   inkscape:export-filename="logo.svg"
   inkscape:export-xdpi="96"
   inkscape:export-ydpi="96"
   xmlns:inkscape="http://www.inkscape.org/namespaces/inkscape"
   xmlns:sodipodi="http://sodipodi.sourceforge.net/DTD/sodipodi-0.dtd"
   xmlns:xlink="http://www.w3.org/1999/xlink"
   xmlns="http://www.w3.org/2000/svg"
   xmlns:svg="http://www.w3.org/2000/svg"><sodipodi:namedview
     id="namedview339"
     pagecolor="#515151"
     bordercolor="#000000"
     borderopacity="0.25"
     inkscape:showpageshadow="2"
     inkscape:pageopacity="0"
     inkscape:pagecheckerboard="true"
     inkscape:deskcolor="#d1d1d1"
     showgrid="false"
     showguides="false"
     inkscape:zoom="1.7481481"
     inkscape:cx="144.15255"
     inkscape:cy="207.64831"
     inkscape:window-width="1920"
     inkscape:window-height="1131"
     inkscape:window-x="0"
     inkscape:window-y="0"
     inkscape:window-maximized="1"
     inkscape:current-layer="Layer_1" /><defs
     id="defs246"><linearGradient
       id="linearGradient1"
       inkscape:collect="always"><stop
         style="stop-color:#38a891;stop-opacity:1;"
         offset="0"
         id="stop1" /><stop
         style="stop-color:#3744b6;stop-opacity:1;"
         offset="1"
         id="stop2" /></linearGradient><style
       id="style244">
      .cls-1 {
        fill: #fff;
      }
    </style><linearGradient
       inkscape:collect="always"
       xlink:href="#linearGradient1"
       id="linearGradient2"
       x1="-126.23389"
       y1="-15.673846"
       x2="410.72037"
       y2="524.1712"
       gradientUnits="userSpaceOnUse"
       gradientTransform="matrix(0.70205302,0,0,0.70253212,106.35593,5.2910411)" /></defs><rect
     style="fill:url(#linearGradient2);fill-opacity:1;stroke-width:1"
     id="rect1"
     width="358.66522"
     height="354.08902"
     x="-6.8644075"
     y="-34.322037" /><g
     inkscape:groupmode="layer"
     id="layer1"
     inkscape:label="Icon"
     transform="matrix(0.70205302,0,0,0.70253212,107.5,2.9300529)"><path
       class="cls-1"
       d="m 0,251.92279 v 28.07716 h 98.1521 c 11.20727,0 22.41454,-3.06726 31.73427,-9.31973 5.7806,-3.89305 11.56119,-9.20176 15.45424,-16.63395 0,0 6.48842,25.00991 46.95256,25.95368 v -28.07716 c 0,0 -29.61078,-3.65712 -32.44209,-20.64498 h 32.44209 v -27.13338 h -50.96358 c -7.55017,0 -14.86438,-2.47741 -20.64498,-7.31423 -6.01653,-5.07277 -11.44322,-13.56671 -11.44322,-27.60527 H 85.17526 c 0,0 -0.58986,34.56558 -24.06614,34.21166 H 0 v 28.07717 h 58.63172 c 0,0 28.07716,-0.82581 39.52038,-24.77398 0,0 12.26901,24.06615 32.67804,23.8302 0,0 -3.65711,20.40903 -23.12237,20.99889 z"
       id="path250"
       style="stroke-width:1.17972"
       inkscape:label="bottom" /><path
       class="cls-1"
       d="m 0,107.29005 v 28.43108 c 0,0 34.9195,-3.06725 36.45312,33.62176 h 23.12237 c 0,0 6.84234,-36.09916 37.63284,-35.5093 30.90847,0.58986 35.50935,35.5093 35.50935,35.5093 h 22.88642 c 0,0 3.06726,-35.74524 36.68907,-35.74524 v -26.3076 c 0,0 -35.50935,-4.01102 -47.1885,24.06614 0,0 -18.16758,-24.30208 -48.95808,-24.30208 -30.7905,0 -46.12678,25.83571 -46.12678,25.83571 0,0 -11.4432,-27.48731 -50.01981,-25.59977 z"
       id="path248"
       style="stroke-width:1.17972"
       inkscape:label="top" /></g></svg>
